/* XPM */
static char *front_2[] = {
/* columns rows colors chars-per-pixel */
"17 18 11 1",
"  c black",
". c #200529",
"X c #5F2B2C",
"o c #584A4C",
"O c #6E7468",
"+ c #9E4C3D",
"@ c #B66387",
"# c #DC8C7E",
"$ c #EA8056",
"% c #EAB06B",
"& c None",
/* pixels */
"&&&&&.......&&&&&",
"&&&&.$$$$$$$.&&&&",
"&&&.$%%%%%%%$.&&&",
"&&.$%%%%%%%%%$.&&",
"&&.%%%%%%%%%%%.&&",
"...$%$$$$$$$%%...",
".@@$$@@@@@@@$%##.",
"&.@$@#.###.#@$#.&",
"&&.$##.###.#@$.&&",
"&&&..#######.$.&&",
"&&&.X.......X.&&&",
"&&&.XX+++++++X.&&",
"&&&..XX+++.##+.&&",
"&&&&.XXXXX.##.&&&",
"&&&&.OOOooo..&&&&",
"&&&&.OOo...&&&&&&",
"&&&&.++.&&&&&&&&&",
"&&&&&..&&&&&&&&&&"
};
