/* XPM */
static char *gem_small[] = {
/* columns rows colors chars-per-pixel */
"16 16 20 1",
"  c black",
". c #333790",
"X c #3E3598",
"o c #3249A8",
"O c #326DD9",
"+ c #5633A8",
"@ c #4A67B3",
"# c #4A77CB",
"$ c #567FC5",
"% c #27ABFA",
"& c #528CDE",
"* c #5DBEFA",
"= c #6E99E1",
"- c #6AAEEC",
"; c #79C8FA",
": c #92A4DC",
"> c #82CCF7",
", c #A7DBF5",
"< c #E7F3F3",
"1 c None",
/* pixels */
"1111111111111111",
"111<<<<<<<<<<111",
"11;+;<;;;;<;<<11",
"1%+O<%;;;;;<;<<1",
";;%%<<<<<<<<<<<<",
"%+O;<O%%%%;<;;<<",
"%+O;<O%%%%;<;;<<",
"1;%%<;;;;;;<<;<1",
"1.+O;++OO%;OO%<1",
"11.OO%+OO%<O%;11",
"111.O;+OO;O%<111",
"1111.O%OO<%<1111",
"11111.;+;OO11111",
"111111.;<O111111",
"1111111.O1111111",
"1111111111111111"
};
