/* XPM */
static char *right_6[] = {
/* columns rows colors chars-per-pixel */
"18 18 10 1",
"  c black",
". c #200529",
"X c #5F2B2C",
"o c #584A4C",
"O c #9E4C3D",
"+ c #B66387",
"@ c #DC8C7E",
"# c #EA8056",
"$ c #EAB06B",
"% c None",
/* pixels */
"%%%%%%.......%%%%%",
"%%%%%.####$$$.%%%%",
"%%%%.###$$$$$$.%%%",
"%%%.###$$$$$$$.%%%",
"%%%.##$$$$$$$$.%%%",
"%%%.##$$$$$$++.%%%",
"%%%.##$$@$$#.@.%%%",
"%%%.##$$@$$#.@.%%%",
"%%%.##$$+$$$#@.%%%",
"%%%.##$$$$$$#.%%%%",
"%%%%.##$$$...%%%%%",
"%%%%%.#...O.%%%%%%",
"%%%%%..XXOOO.%%%%%",
"%%%%.+.XXXO@@.%%%%",
"%%%%.+.oooo@@.%%%%",
"%%%%%..oooo.X.%%%%",
"%%%%%.OO...XX.%%%%",
"%%%%%...%%%..%%%%%"
};
