/* XPM */
static char *tile_grass_1[] = {
/* columns rows colors chars-per-pixel */
"32 32 2 1",
"  c #68B671",
". c #72C37A",
/* pixels */
"................................",
"................................",
"..................... ..........",
"..................... ... ......",
".....................  .  ......",
"...................... . .......",
"................................",
"................................",
"................................",
"................................",
"................................",
"...... ............  ...........",
"....... ........  . ..  ........",
"....  . .  ...... . .  .........",
"..... . . ......................",
"................................",
"................................",
"................................",
"................................",
"................................",
"................................",
"........... ....................",
"...........  ..  ...............",
"........  .. .  ................",
".........  . . .................",
"................................",
"................................",
"................................",
"................................",
"................................",
"................................",
"................................"
};
