/* XPM */
static char *door_B_0[] = {
/* columns rows colors chars-per-pixel */
"102 118 63 1",
"  c black",
". c #100902",
"X c #110A03",
"o c #263246",
"O c #263247",
"+ c #263347",
"@ c #263348",
"# c #273348",
"$ c #416470",
"% c #426470",
"& c #426570",
"* c #426571",
"= c #426671",
"- c #436671",
"; c #436672",
": c #436772",
"> c #436773",
", c #446773",
"< c #446873",
"1 c #446874",
"2 c #456975",
"3 c #456976",
"4 c #456A76",
"5 c #466A76",
"6 c #466A77",
"7 c #466B77",
"8 c #466B78",
"9 c #4B727E",
"0 c #4B727F",
"q c #4B737F",
"w c #4B7380",
"e c #4C7380",
"r c #4C7481",
"t c #4D7582",
"y c #4D7683",
"u c #4E7683",
"i c #4E7684",
"p c #4E7784",
"a c #4F7785",
"s c #79A79C",
"d c #79A79D",
"f c #79A89D",
"g c #7AA89D",
"h c #7AA89E",
"j c #7AA99E",
"k c #7AA99F",
"l c #7BA99F",
"z c #7BAA9F",
"x c #7BAAA0",
"c c #7BABA0",
"v c #7CABA0",
"b c #7CABA1",
"n c #7CACA1",
"m c #7DACA1",
"M c #7DACA2",
"N c #7DADA2",
"B c #7EAEA3",
"V c #7EAFA3",
"C c #7EAFA4",
"Z c #7FAFA4",
"A c #7FB0A4",
"S c #7FB0A5",
"D c None",
/* pixels */
"DDDDDDDDDDDDDDDDDDDDDDDDDDDDDDDDDDDDDDDDDDDDDDDDDZ44466666466466ZZDDDDDDDDDDDDDDDDDDDDDDDDDDDDDDDDDDDD",
"DDDDDDDDDDDDDDDDDDDDDDDDDDDDDDDDDDDDDDDDDDZZZZZZZZ4444666>44>44>ZAZZZZZZZDDDDDDDDDDDDDDDDDDDDDDDDDDDDD",
"DDDDDDDDDDDDDDDDDDDDDDDDDDDDDDDDDDDDDDDDDZZZZ4444444444464444444444444ZZZZDDDDDDDDDDDDDDDDDDDDDDDDDDDD",
"DDDDDDDDDDDDDDDDDDDDDDDDDDDDDDDDDDDDDDDZZZZZZ44444444444>4444444444444ZZZZZZDDDDDDDDDDDDDDDDDDDDDDDDDD",
"DDDDDDDDDDDDDDDDDDDDDDDDDDDDDDDDDDDDDZZZZZZZZ4444444444444444444444444AAZZZZZZDDDDDDDDDDDDDDDDDDDDDDDD",
"DDDDDDDDDDDDDDDDDDDDDDDDDDDDDDDDDDDZ44444444444444444444444444ti444444444444444ZDDDDDDDDDDDDDDDDDDDDDD",
"DDDDDDDDDDDDDDDDDDDDDDDDDDDDDDDDDZZZ44444444444444444444444444it444444444444444ZZDDDDDDDDDDDDDDDDDDDDD",
"DDDDDDDDDDDDDDDDDDDDDDDDDDDDDDDDZZZZ44444444444455555555555544ti544444444444444ZZZZDDDDDDDDDDDDDDDDDDD",
"DDDDDDDDDDDDDDDDDDDDDDDDDDDDDD44444444444444555555555555555555at55555444444444444444ZDDDDDDDDDDDDDDDDD",
"DDDDDDDDDDDDDDDDDDDDDDDDDDDDAA44444444444555555555555555555555uu55555555444444444444ZZZDDDDDDDDDDDDDDD",
"DDDDDDDDDDDDDDDDDDDDDDDDDDZZZZ44444444455555555555555555555555uu55555555554444444444ZZZZZDDDDDDDDDDDDD",
"DDDDDDDDDDDDDDDDDDDDDDDDDZZ444444444455555555555555555555555555555555555555554444444444ZZZDDDDDDDDDDDD",
"DDDDDDDDDDDDDDDDDDDDDDDDZZZ444444445555555555555555555555555555555555555555555444444444ZZZZDDDDDDDDDDD",
"DDDDDDDDDDDDDDDDDDDDDDDZZZZ444444555555555555556666666666666556555555555555555554444444ZZZZDDDDDDDDDDD",
"DDDDDDDDDDDDDDDDDDDDDDDZZ44444445555555555556666666666666666666666655555555555555444444444ZZDDDDDDDDDD",
"DDDDDDDDDDDDDDDDDDDDDDZZZ44444455555555556666666666666666666666666666655555555555554444444ZZZDDDDDDDDD",
"DDDDDDDDDDDDDDDDDDDDDD444444455555555555858558586888777777777858ppp58555555555555555444444444DDDDDDDDD",
"DDDDDDDDDDDDDDDDDDDDDZ444444555555555588585885878888777777777785ppp85858555555555555544444444ZDDDDDDDD",
"DDDDDDDDDDDDDDDDDDDDZZ444445555555558585857757775888777777777757ppp78585665555555555554444444ZDDDDDDDD",
"DDDDDDDDDDDDDDDDDDDDZZ44445555555555585858777777858577777777777777775858655565555555555444444ZZDDDDDDD",
"DDDDDDDDDDDDDDDDDDDZZZ44455555555555585785857777587777777777777777777758665556555555555544444AAZDDDDDD",
"DDDDDDDDDDDDDDDDDDDZZZ44455555555565878558587777857777777777777777777777865566655555555554444AZZDDDDDD",
"DDDDDDDDDDDDDDDDDDZ44444555555565568777777777777577777777777777777777777885566665555555555444444ZDDDDD",
"DDDDDDDDDDDDDDDDDZZ44444555555666588777777777777857777777777777777777777888866666555555555444444ZDDDDD",
"DDDDDDDDDDDDDDDDDZZ44455545555566858585777777777777777777777777777777777777785856655555555544444ZZDDDD",
"DDDDDDDDDDDDDDDDZZZ444555au555668885857777777777777777777777777777777777777758586665555555554444ZZZDDD",
"DDDDDDDDDDDDDDDDZZZ445554ia455558888777777777777777777777777777777777777778585856665555555554444ZZZDDD",
"DDDDDDDDDDDDDDDZZZA445555ia555888885777777777777777777777777777777777777775858586666555555555444ZZZZDD",
"DDDDDDDDDDDDDDZZ44444555556666887777777777777777777777777777777777777777777785856666655555555444444ZDD",
"DDDDDDDDDDDDDDZZ44445555556666887777777777777777777777777777777777777777777758586666655555555544444ZZD",
"DDDDDDDDDDDDDZZZ44445555566666887777777777777777777777777777777777777777777785886666665555555544444ZZD",
"DDDDDDDDDDDDDZZZ44445555566666887777777777777777777777777777777777777777777788888866665555555544444ZZD",
"DDDDDDDDDDDDDZZZ44555555858777777777777777777777777777777777777777777777777777777785858555555554444ZZD",
"DDDDDDDDDDDDDZZZ445555555857777777777777777777777777777777777777777777777777777777pp585555555554444ZZD",
"DDDDDDDDDDDDDZZZ445555558577777777777777777777777777777777777777777777777777777777pp558555555554444ZZD",
"DDDDDDDDDDDDDZZZ445555555877777777777777777777777777777777777777777777777777777777pp558555555555444ZZD",
"DDDDDDDDDDDDDZZA45555555858577777777777777777777777777777777777777777777777777778588555655555555444ZZD",
"DDDDDDDDDDDDDZZA45555558585877777777777777777777777888777777777777777777777777775888556655555555444ZZD",
"DDDDDDDDDDDDDZZA45555558588577777777777777777777888888887777777777777777777777778588666655555555444ZZD",
"DDDDDDDDDDDDDZZA45555585858ppp777777777777777778888888888777777777777777777777775888666655555555444ZZD",
"DDDDDDDDDDDDDZZA45555555585ppp777777777777777788888888888877777777777777777777778577666665555555444ZZD",
"DDDDDDDDDDDDDZZA45555555857ppp777777777777777788888888888887777777777777777777775877656665555555444ZZD",
"DDDDDDDDDDDDDZZS45555555587777777777777777777888888888888887777777777777777777777777855565555555444ZZD",
"DDDDDDDDDDDDDZZA45555566877777777777777777777888888888888887777777777777777777777777865565555555444ZZD",
"DDDDDDDDDDDDDZAA45555566585777777777777777777788888888888887777777777777777777777777855565555555444ZZD",
"DDDDDDDDDDDDDZZA45555566857777777777777777777787888888888887777777777777777777777777585555555555444ZZD",
"DDDDDDDDDDDDDZAA45555566587777777777777777777777888888888877777777777777777777777777858555555555444ZZD",
"DDDDDDDDDDDDDZAA45555566877777777777777777777777888888888877777777777777777777777777585855555555444ZZD",
"DDDDDDDDDDDDDZZA45555566688877777777777777777778888888888777777777777777777777778888666655555555444ZZD",
"DDDDDDDDDDDDDZZA45555566688877777777777777777777788888877777777777777777777777778888666655555555444ZZD",
"DDDDDDDDDDDDDZZA45555566858877777777777777777777777777777777777777777777777777775885666655555554444ZZD",
"DDDDDDDDDDDDDZZA4555555658587777777777777777777777777aaa7777777777777777777777778586665555555554444ZZD",
"DDDDDDDDDDDDDZZA4555555655888877777777777777777777777aaa7777777777777777777777775858445555555554444ZZD",
"DDDDDDDDDDDDDZZZ44555555558858587777777777777777777777777777777777777777777777778585paa455555554444ZZD",
"DDDDDDDDDDDDDZZZ44555555556885857777777777777777777777777777777777777777777777775858iia555555544444ZZD",
"DDDDDDDDDDDDDZZZ44555555556858587777777777777777777777777777777777777777777777778585iat555555544444ZZD",
"DDDDDDDDDDDDDZZZ44455555558585857777777777777777777777777777777777777777775858885866655555555444444ZZD",
"DDDDDDDDDDDDDZZZ44455555555858587777777777777777777777777777777777777777777588888555655555555444444ZZD",
"DDDDDDDDDDDDDZZZ44455555558585887777777777777777777777777777777777777777775858885555555555554444444ZZD",
"DDDDDDDDDDDDDZZZ44445555555858887777777777777777777777777777777777777777778585865555555555554444444ZZD",
"DDDDDDDDDDDDDZZZ44445555555555887777777777777777777777777777777777777777777788566655555555544444444ZZD",
"DDDDDDDDDDDDDZZZ44444555555555587777777777777777777777777777777777777777777786556654555554544444444ZZD",
"DDDDDDDDDDDDDZZZ444444555555558877777777777777777777777777777777777777777777666665ii555544444444444ZZD",
"DDDDDDDDDDDDDZZZ444444555555588887777777777777777777777777777777777777777758666655ia555544444444444ZZD",
"DDDDDDDDDDDDDZZZ144444455555555566668885858577777777777777777777777777778856666555aa555554444444466ZZD",
"DDDDDDDDDDDDDZZZ1444444455555555666688585858777777777777777777777777777786556655555455554444444446>mZD",
"DDDDDDDDDDDDDZZS184444445555555566668888778577777777777777777777777758786666655555555554444444446>4ZZD",
"DDDDDDDDDDDDDNNS41444444455555555666558877777777777777777777777777777585666655555555554444444444644ZZD",
"DDDDDDDDDDDDDNZZ444444444455555555666666778585577777777785858888888885856665555555555444444444445>5ZAD",
"DDDDDDDDDDDDDZNN64>644444444555555566666585858857777777758588888885558586555555555554444444444445>5mAD",
"DDDDDDDDDDDDDZNZ>>44644444445555555556668585858877777777858885855555558555555555555444444444>666444AZD",
"DDDDDDDDDDDDDNZN46>4>4444ii44555555555565858585ppp77777758555866555558555555555555XXXXXXX.44666>>44ZmD",
"DDDDDDDDDDDDDZNZ555>66644tt44444555555555666665upp85555666666666566555555555555555XXXXXXXX46646>>55ZmD",
"DDDDDDDDDDDDDNZN>>55>>654444444455555555555566558558555666666666555555555555555XXXXXXXXXXXXX.>>455>mZD",
"DDDDDDDDDDDDDZNZ55>56>>5466>444445555555555555555885555866665555555555555555554XXXXXXXXXXXXXX>554>5mZD",
"DDDDDDDDDDDDDNZN5>55>5556666444444455555555555555555555555555555555555555555444XXXXXXXXXXXXXX55>445ZmD",
"DDDDDDDDDDDDDZNZ55>555>>644>444444445555555555555555555555555555555555555544444XXXXXXXXXXXXXX5>55>5mAD",
"DDDDDDDDDDDDDZZN>5>5>555>>66444444444445555555555555555555555555555555554444444XXXXXXXXXXXXXX5>55>5mZD",
"DDDDDDDDDDDDDNNZ5>55>5554>46664444444444455555555555555555555555555555444444444XXXXXXXXXXXXXX>55444ZZD",
"DDDDDDDDDDDDDNNN555>55>>45>6>44444444444444455555555555555555555554444444444444XXXXXXXXXXXXXX55>>44ZmD",
"DDDDDDDDDDDDDNNN>55555>>55>555>564444444444444444555554455555444444444444444445XXXXXXXXXXXXXX5>555>mZD",
"DDDDDDDDDDDDDNNN>>5>>5555>55>56555444444444444444444444444444444444444444444444XXXXXXXXXXXXXX5>5>55mZD",
"DDDDDDDDDDDDDNNN>>>5>55555>>5>>55>6646>4444444444444444444444444444444444444445XXXXXXXXXXXXXX>55>55ZmD",
"DDDDDDDDDDDDDNNN55>>55>>>555555>5>>566644444444444444444444444444444444>44>666>XXXXXXXXXXXXXX55>444mmD",
"DDDDDDDDDDDDDNNN>>5>>555555>>>555>55>66566>44444444444444444444444444446666>55>XXXXXXXXXXXXXX>554>>mND",
"DDDDDDDDDDDDDmNN>5>>5>>5>>55555>5>5>55>56>66444>4444444444444>444444>666>65>>55545XXXXXXXX55555>4>5mND",
"DDDDDDDDDDDDDNmN>>55>>>555>5555>55>5>55>>44566666>444444>64466446466565>>56>>555>>XXXXXXXX5>5>5>>44NND",
"DDDDDDDDDDDDDmmm5>>>>55>>>55>>55>555>55>4>>5>5>6>666>66646646645>>6>5>5555>555>>55XXXXXXXX5>555>>4>NND",
"DDDDDDDDDDDDDmcN>55>5>>>5>55>>555>555>555>>5>5556>>555>5,544,54,5655>>555>555>555>XXXXXXXX5>55>>4>>mmD",
"DDDDDDDDDDDDDNNc>>>>>>555>>5555>5>5>55>5555555>>>655>5>545,5,45,5>>5555>5>5>55>555XXXXXXXX5>>>>5>>5mmD",
"DDDDDDDDDDDDDNmm5>>5>5>>>>>>>55>55>5>>55>55>5>5uut6>5>554,5,5544>>55555>55>5>>55>5XXXXXXXX>5>>>5>44mmD",
"DDDDDDDDDDDDDmmm,>>5>>5>>55>5>>5>555555>>55>55>ttt>5555>5,444,,5555>>>55>555555>>5XXXXXX..>>55>>>>6ZZD",
"DDDDDDDDDDDDDvvm,,5>>5>>5>>>>>>5>55>555>555>>55uuu5>>>554,555,,4>555555>55>>>55555XXXX....>>>>>5>>4mND",
"DDDDDDDDDDDDDvvv,,,>>5>5>>55>5>>5>>5>>555>5555>5>>55555>5,4,445555>>5>55>55555>>5>X.......55>5>>4>>zND",
"DDDDDDDDDDDDDzvv,,,,,,>>>5>>5>5>5>>>>555>5>55>5>55>5555>54,4,54,5>55>5>5>5555>555>........>>5>5>4>>mmD",
"DDDDDDDDDDDDDmvv,,,,>>55>>5>>>5>>>55>>>>55>55>555>55>>55,455,45,55>555>555>>55>5>>........5>>>5>>>4mND",
"DDDDDDDDDDDDDccm>>>,,,,,,,,,:4:4:,4>4>,,4>,4444,,444,444,,54,544>>55>5utt45>>>5>4>X.......>4,2,2:4:NzD",
"DDDDDDDDDDDDDccc>>>>,,,,5-,,4:4:4>4,,>4>4,>4>>4,44,4,4,4445,45,5555>559tt>>55>5>:4........>>2,2,4:4zND",
"DDDDDDDDDDDDDccc>>>>,,,,,,,,,44:>4>,,4>4>>,,>4>,4>,>,,44,>>54>,>>5>>5>tut>6>>5>>4:...X...X4>,2,24,:NzD",
"DDDDDDDDDDDDDmdc>>>>>,,,,,,,:4:2,,>4>4,,,44>,,>4,>444>>,44,>,>44>>>5>>>>>>>>>>>5:4:4>,:4>>4>2,2,:,,zND",
"DDDDDDDDDDDDDNdN->>>>>>>,,,,,,2,4>4:4:4>,>>444>,4>,,4:4:>,4>,4>,5>>5>>5>>>>555>>,4,:,4,,>4,,,,,,,,,NzD",
"DDDDDDDDDDDDDdzd>>->>>>>,,,,,,,,,,:4>4,>44,,>,>4,>4>:4:4>4,>,>4,5>>5>5>>55>>>>>5,4,4,,,,>>>5,,,,,,:NND",
"DDDDDDDDDDDDDNzz>%->>>>>,,,,,,,,,,,,,4:4>,4>,>,4,4>44:4:,,4444>>>>>>>>55>>5>>>>5,,4,4,-,4>,,,,,,,,,zzD",
"DDDDDDDDDDDDDdzz>%>->>>>,,,,,,,,,,,,,,4:>4,>44,>>4,,>4:24>>,>,,4>55>5>>>>5>>55>>4,,,4,5,>>>>,,,,,,,NND",
"DDDDDDDDDDDDDdNd;;;;;6>>>>>>>>>>,,,,,,>5,,4,,,,4,,44,,2:4,,,,,,42,2,,4,,>5>5>>>5>>5,5>,,,,,,>>>>1:1NND",
"DDDDDDDDDDDDDddz;;;;%%>>>->>>>>>,,,,,,>>,,,,,44:4,,,,4,2:,4444,,:2,2,,,,>>>5>5>>5,>>,>,,,,,,>>>>>11zzD",
"DDDDDDDDDDDDDdzz;;;->%%%->>>>>>>>>,,,,>>,,,,,,:,,,,>,4,,4:,,,,,,2:2,4,-,55>,5,5-,,,>,,,,,,,,>>1>>>1zzD",
"DDDDDDDDDDDDDzzd-;;-%6>>>-->->>>>>>>,,>>,,,,,,,,,,,5,,,2:44,,4,>:4,2,,5,>>>,-,,>,,,>,,,,,,,>>>::>>1zzD",
"DDDDDDDDDDDDDzzd*6%---999>->>->>>>>>>>>>>>>>,,,,,,,,,,,,>>>>5>,5,,,,,,,,,,,,>,,,,,t9,,,,>>>>>999>>>zzD",
"DDDDDDDDDDDDDddz**%>--999>>->%->>>>>>>>>>>>>,,,,,,,,,,,,>>>>,,>,,,,,,,,,,,,,,,,,,,9t,>>>>>>>>9t9>>>czD",
"DDDDDDDDDDDDDddz%*----,>,%->>>%>->->>>>>>>:1:1,,,,,,,,,,,,,,,,>>,,,,,,,,,,,,,,,,,>>>>>>>>>>>>>>-::>dzD",
"DDDDDDDDDDDDDzdd%------%>>>%%>>>>->->>>>>>1:1:::>>>,,,,,,,,,,,>>,,,,,,,,,,,,>>>>>>>>>>>>>>>>->->:>:zzD",
"DDDDDDDDDDDDDddd:>$$>>&&:>>>&>>%->>%,,>-->>>>>>>>>:::1>>>>>>>>>>,,>>>>>>>>>>>>>>>>>>>>>>->->-,>->>>ssD",
"DDDDDDDDDDDDDddd&&>&$$&>&&&>&>->>->%>%->>>>->>>>>>::1:>>>>>>>>>>::>1>>>>>>>>>>>>>>>>>>>->->->&->>>>mND",
"DDDDDDDDDDDDDddd&>&&$$&>&>&>>>>-->->%>>->%>>->->-,,:>>>>>>::>>>>1:1:>>>>>>>>>>>>>>>-,--,->->>->-&&>ssD",
"DDDDDDDDDDDDDddd&&&>>>$$&>&&&-->>->-,,%>>>>>>->->-,->>>>>>1,>>>>:1:1>>>>>>>>>>>&>&->&>>&>->>->->>>>sND",
"DDDDDDDDDDDDD$&&@o@oooooo@@@o@o@@@@@####@@@@########o##############@@@zzcccx###########zzz@@@@@@sms>>D",
"DDDDDDDDDDDDD&&>o@o@ooo@@o@@@o@oooo@##oo@@@@@@@@####@@#############@@@zzcNcc########@@@zzz@@@@@@mms>>D"
};
