/* XPM */
static char *frame0000[] = {
/* columns rows colors chars-per-pixel */
"32 32 20 1",
"  c black",
". c #333790",
"X c #3E3598",
"o c #326DD9",
"O c #5633A8",
"+ c #4A67B3",
"@ c #5666BB",
"# c #3683DE",
"$ c #2E81E4",
"% c #27ABFA",
"& c #528CDE",
"* c #46A0EF",
"= c #6D96DE",
"- c #6E99E1",
"; c #79C8FA",
": c #82CCF7",
"> c #AAC6EA",
", c #A7DBF5",
"< c #E7F3F3",
"1 c None",
/* pixels */
"11111111111111111111111111111111",
"11111111111111111111111111111111",
"11111111111111111111111111111111",
"111111;;%<<<<<<<<<<<<<<<<<111111",
"11111;OOo;<%%;;;;;;;<<;;<<<11111",
"1111%OOoo;<%%;;;;;;;<<;;;<<<1111",
"111%OOoo;<%%;;;;;;;;;<<;;;<<<111",
"11;OOooo;<%%;;;;;;;;;<<;;;;<<<11",
"1;;;%%%%<<<<<<<<<<<<<<<<<<<<<<<1",
"1;OOooo;;<oo%%%%%%%%;;<;;;;;<<<1",
"1%OOooo;;<oo%%%%%%%%;;<;;;;;<<<1",
"1%OOooo;;<oo%%%%%%%%;;<;;;;;<<<1",
"1%OOooo;;<oo%%%%%%%%;;<;;;;;<<<1",
"1;OOooo;;<oo%%%%%%%%;;<;;;;;<<<1",
"1;;;%%%%<<<;;;;;;;;;;<<<<;;;<<<1",
"11;OOOOOO<%%%%%%%%%%%%<oooooo<11",
"111.OOoooO%OOOoooo%%%<ooo%%%<111",
"1111.Ooooo<OOOoooo%%%<oo%%%<1111",
"11111.OoooO%OOoooo%%<oo%%%;11111",
"111111.Oooo<OOoooo%%<o%%%<111111",
"1111111.OooO%OOoo%%;oo%%<1111111",
"11111111.Ooo<OOoo%%<o%%;11111111",
"111111111.OoO%Ooo%;o%%<111111111",
"1111111111.Oo;OO%%<o%;1111111111",
"11111111111.OO%O%;o%o11111111111",
"111111111111.O;O%<%;111111111111",
"1111111111111.O%;%o1111111111111",
"11111111111111.;<o11111111111111",
"111111111111111.o111111111111111",
"11111111111111111111111111111111",
"11111111111111111111111111111111",
"11111111111111111111111111111111"
};
