/* XPM */
static char *key_gold[] = {
/* columns rows colors chars-per-pixel */
"32 32 35 1",
"  c black",
". c #51212B",
"X c #62252A",
"o c #67262A",
"O c #73292A",
"+ c #7E2B29",
"@ c #813D2F",
"# c #863A2D",
"$ c #89382C",
"% c #953129",
"& c #973E2D",
"* c #8E4B30",
"= c #97432E",
"- c #AA5031",
"; c #BB5430",
": c #BA7A3A",
"> c #D07F39",
", c #E17738",
"< c #EA963E",
"1 c #C59868",
"2 c #EEA641",
"3 c #FCD64B",
"4 c #ECC07C",
"5 c #CA9F80",
"6 c #EECE8A",
"7 c #EACC9A",
"8 c #F5DF83",
"9 c #E5C9B4",
"0 c #F3E18E",
"q c #F1E49F",
"w c #EFE7AF",
"e c #EEE9BB",
"r c #ECEBC9",
"t c #E7F3F3",
"y c None",
/* pixels */
"yyyyyyyyyyyyyyyyyyyyyyyyyyyyyyyy",
"yyyyyyyyyyyyy,,3tttyyyyyyyyyyyyy",
"yyyyyyyyyyy,3333333ttyyyyyyyyyyy",
"yyyyyyyyyy,33,%%%%,33tyyyyyyyyyy",
"yyyyyyyyy.33%.yyyy.%,3tyyyyyyyyy",
"yyyyyyyyy%,%yyyyyyyy%3tyyyyyyyyy",
"yyyyyyyy.,,.yyyyyyyy.,3tyyyyyyyy",
"yyyyyyyy%,3yyyyyyyyyy%3tyyyyyyyy",
"yyyyyyyy%,tyyyyyyyyyy.3tyyyyyyyy",
"yyyyyyyy%,tyyyyyyyyyy.33yyyyyyyy",
"yyyyyyyy%,3yyyyyyyyyy%3,yyyyyyyy",
"yyyyyyyy.,,tyyyyyyyy.,3,yyyyyyyy",
"yyyyyyyyy%,3yyyyyyyy%33yyyyyyyyy",
"yyyyyyyyy.,,3tyyyy.%,3,yyyyyyyyy",
"yyyyyyyyyy%,,,3tt3,,3,yyyyyyyyyy",
"yyyyyyyyyyy.%,,,,,,,%yyyyyyyyyyy",
"yyyyyyyyyyyyy.%%%%.yyyyyyyyyyyyy",
"yyyyyyyyyyyyyy.,,,yyyyyyyyyyyyyy",
"yyyyyyyyyyyyyy.,,,yyyyyyyyyyyyyy",
"yyyyyyyyyyyyyy%,33yyyyyyyyyyyyyy",
"yyyyyyyyyyyyyy%,3tyyyyyyyyyyyyyy",
"yyyyyyyyyyyyyy%,3tyyyyyyyyyyyyyy",
"yyyyyyyyyyyyyy%,3tyyyyyyyyyyyyyy",
"yyyyyyyyyyyyyy%,3t3333ttyyyyyyyy",
"yyyyyyyyyyyyyy%,3t,,,,,3yyyyyyyy",
"yyyyyyyyyyyyyy%,3t%%%%%yyyyyyyyy",
"yyyyyyyyyyyyyy%,3tyyyyyyyyyyyyyy",
"yyyyyyyyyyyyyy%,33yyyyyyyyyyyyyy",
"yyyyyyyyyyyyyy%,3tyyyyyyyyyyyyyy",
"yyyyyyyyyyyyyy%,3t3333tyyyyyyyyy",
"yyyyyyyyyyyyyy.,33,,,,,tyyyyyyyy",
"yyyyyyyyyyyyyyy.%%%%%%%,yyyyyyyy"
};
