/* XPM */
static char *tile_grass[] = {
/* columns rows colors chars-per-pixel */
"30 30 2 1",
"  c #68B671",
". c #72C37A",
/* pixels */
"..............................",
"..............................",
"..............................",
"..............................",
"........... ..................",
"...........  ..  .............",
"........  .. .  ..............",
".........  . . ...............",
"..............................",
"..............................",
"..............................",
"... ..........................",
"...  ..  .....................",
"  .. .  ......................",
".  . . .......................",
"..............................",
".................  ...........",
"..............  . ..  ........",
"............... . .  .........",
"..............................",
"..............................",
"..............................",
"..............................",
"..............................",
"...............  ..  .........",
"............  .. .  ..........",
".............  . . ...........",
"..............................",
"..............................",
".............................."
};
