/* XPM */
static char *door_A_0[] = {
/* columns rows colors chars-per-pixel */
"120 120 57 1",
"  c black",
". c #3D1F1F",
"X c #3E2020",
"o c #803B31",
"O c #813B31",
"+ c #813C31",
"@ c #823C31",
"# c #823C32",
"$ c #833C32",
"% c #833D32",
"& c #843D32",
"* c #853E33",
"= c #863E33",
"- c #863F33",
"; c #873F33",
": c #873F34",
"> c #883F34",
", c #C06E36",
"< c #C16F36",
"1 c #C26F36",
"2 c #C27035",
"3 c #C37035",
"4 c #C37135",
"5 c #C37037",
"6 c #C37136",
"7 c #C47037",
"8 c #C47136",
"9 c #C47137",
"0 c #C57136",
"q c #C57137",
"w c #C57236",
"e c #C67236",
"r c #C67336",
"t c #C67337",
"y c #C77337",
"u c #C67238",
"i c #C77238",
"p c #C77338",
"a c #C87337",
"s c #C87437",
"d c #C97437",
"f c #C87338",
"g c #C97338",
"h c #C97339",
"j c #C97439",
"k c #CA7439",
"l c #CA7538",
"z c #CB7538",
"x c #CB7638",
"c c #CC7638",
"v c #CD7638",
"b c #CD7639",
"n c #CD7739",
"m c #CE7739",
"M c #CE7839",
"N c #CF7839",
"B c None",
/* pixels */
"BBBBBBBBBBBBBBBBBBBBBBBBBBBBBBBBBBBBBBBBBBBBBBBBBBBBBBBBBBBBBBBBBBBBBBBBBBBBBBBBBBBBBBBBBBBBBBBBBBBBBBBBBBBBBBBBBBBBBBBB",
"BBBBBBBBBBBBBBBBBBBBBBBBBBBBBBBBBBBBBBBBBBBBBBBBBBBBBBBBBBBBBBBBBBBBBBBBBBBBBBBBBBBBBBBBBBBBBBBBBBBBBBBBBBBBBBBBBBBBBBBB",
"BBBBBBBBBBBBBBBBBBBBBBBBBBBBBBBBBBBBBBBBBBBBBBBBBBBBBBBBBBBBBBBBBBBBxxxxxxxxzz===xxxxBBBBBBBBBBBBBBBBBBBBBBBBBBBBBBBBBBB",
"BBBBBBBBBBBBBBBBBBBBBBBBBBBBBBBBBBBBBBBBBBBBBBBBBBBBBBBBBBBBB===xxxzxxxxxxxxzz===zxxxz=::xxzBBBBBBBBBBBBBBBBBBBBBBBBBBBB",
"BBBBBBBBBBBBBBBBBBBBBBBBBBBBBBBBBBBBBBBBBBBBBBBBBBBBBBBBBBBBp===zzzzzcccnccccc==;nndxn:==dxxzBBBBBBBBBBBBBBBBBBBBBBBBBBB",
"BBBBBBBBBBBBBBBBBBBBBBBBBBBBBBBBBBBBBBBBBBBBBBBBBBBBBBBBBBppp===zccccccccccccc===dnnnd==:zxxzzcBBBBBBBBBBBBBBBBBBBBBBBBB",
"BBBBBBBBBBBBBBBBBBBBBBBBBBBBBBBBBBBBBBBBBBBBBBBBBBBBBBBBzzppp===cccccccccccccc::=ddnnn===ccczxccxBBBBBBBBBBBBBBBBBBBBBBB",
"BBBBBBBBBBBBBBBBBBBBBBBBBBBBBBBBBBBBBBBBBBBBBBBBBBBBBBzzxx===ccccccccccccccccc::;nnndd===ccccnccxxxBBBBBBBBBBBBBBBBBBBBB",
"BBBBBBBBBBBBBBBBBBBBBBBBBBBBBBBBBBBBBBBBBBBBBBBBBBBBcccdnd===nndccccccccdNdNnn==;ndNcc===cccccccnddnBBBBBBBBBBBBBBBBBBBB",
"BBBBBBBBBBBBBBBBBBBBBBBBBBBBBBBBBBBBBBBBBBBBBBBBBBBxcccNnn===dnnccccccccNdNddd===dNdcc===cccccccnnnnzzBBBBBBBBBBBBBBBBBB",
"BBBBBBBBBBBBBBBBBBBBBBBBBBBBBBBBBBBBBBBBBBBBBBBBBxzxccNddd;=;NdNccccccccdNnnnn==;NdNcc===cccccccdnndndz=BBBBBBBBBBBBBBBB",
"BBBBBBBBBBBBBBBBBBBBBBBBBBBBBBBBBBBBBBBBBBBBBBB==xccccdNnn;=;dNdccccccccNddnnd::;dNdcc===cccccccdnndnnz=:=BBBBBBBBBBBBBB",
"BBBBBBBBBBBBBBBBBBBBBBBBBBBBBBBBBBBBBBBBBBBBBz===dnnNdNdNd===ndNvvvcvvNcddNNnn:;;dcccc===cccccccnnnvccc==:dnBBBBBBBBBBBB",
"BBBBBBBBBBBBBBBBBBBBBBBBBBBBBBBBBBBBBBBBBBBBpp===nnddNdNdd===dNdvvvkvvvcNNd;::ccdNNccc;==cccccccndvvciz==:ndzBBBBBBBBBBB",
"BBBBBBBBBBBBBBBBBBBBBBBBBBBBBBBBBBBBBBBBBBBzpp==;nndNdNdNd;;;NdNmmmkkmcNcNN;::knNNNcNv>>;cccccccvxvxczs===nnxxBBBBBBBBBB",
"BBBBBBBBBBBBBBBBBBBBBBBBBBBBBBBBBBBBBBBBBBzzpp===dnndNdNdN;;;NdNkmmmmmcNccN;::nnNdcNvv>=;cccccccxvxvdts===dnxxBBBBBBBBBB",
"BBBBBBBBBBBBBBBBBBBBBBBBBBBBBBBBBBBBBBBBBBzz==ccddnnccc:::cmmmmmnnnnnnnn>::kkjnnnnnnnn:::mmcccccvxxvx--dcccccczBBBBBBBBB",
"BBBBBBBBBBBBBBBBBBBBBBBBBBBBBBBBBBBBBBBBBzzz==ccnnNdccc>=:Ncmmkmnnnnnnnn>::kkknnnnnnnn:::kmmmcccxvvxv@;ncccccczzBBBBBBBB",
"BBBBBBBBBBBBBBBBBBBBBBBBBBBBBBBBBBBBBBBBBzcc==ccdNdNccc:==cnnnmmnnnnnnnn:::nnnnnnnnjzp:::ckmmmkcvnvvd@;dccccccccBBBBBBBB",
"BBBBBBBBBBBBBBBBBBBBBBBBBBBBBBBBBBBBBBBBxxcc==cdNdNdcmc:;>ccnnkmnnnnnnnn:::nnnnknnnjjk:::cmmmmmmdnvvN;;ncccccccczBBBBBBB",
"BBBBBBBBBBBBBBBBBBBBBBBBBBBBBBBBBBBBBBBcxnnd;=vvdNvvvvm:::nnnnnnnnnnkmmm:::nnnmmnnnjkk:::mmknnnmcNNdd;;dcccccccccBBBBBBB",
"BBBBBBBBBBBBBBBBBBBBBBBBBBBBBBBBBBBBBBBcndnn;;vvNdNNccm>::nnnnnnnnnnn:::kkknnnmmnnn:::nnmmnnnnnnNNdNN;;ncccccccc==BBBBBB",
"BBBBBBBBBBBBBBBBBBBBBBBBBBBBBBBBBBBBBBnddndn;;NdNNddccm>::nnnnnnnnnNn:::jjjnnnnmnnn:::nnnnnnnnnncvdNN;;dcccccccc===BBBBB",
"BBBBBBBBBBBBBBBBBBBBBBBBBBBBBBBBBBBBBBnnnndn;;dNdNNNNcm>::nnnnnnnNnnn:::kkknnnNmnnn:::nnnnnnnnnnNcNNd;;ncccccccc===BBBBB",
"BBBBBBBBBBBBBBBBBBBBBBBBBBBBBBBBBBBBBdnncccc=:Ndnnnnnnn:::mmmmmmmmmmm:::mmmmmmmmnnm:::mmnnnnnnnncc>>:ccccccccccc===cBBBB",
"BBBBBBBBBBBBBBBBBBBBBBBBBBBBBBBBBBBBznndcccc:;Ndmnnnnnn:::mNmmmmmmmmm:::mmmmmmmmnnm:::mmnnnnnnnncN>>:mcccccccccc===cBBBB",
"BBBBBBBBBBBBBBBBBBBBBBBBBBBBBBBBBBBBnnndcccc::dnmmnnnnn:::nnmmmmmmmmm:::mmmmmmmmNmm:::mmmkmmnnnnmm:::mmmccccccci===ccBBB",
"BBBBBBBBBBBBBBBBBBBBBBBBBBBBBBBBBBBcddnncccc::nnkmnnnnn:::nnmmmmmm:::kkkmmmmmmmmnNm>::mmmmmmnnnnmc:::kmnmcccc===ppzcnzBB",
"BBBBBBBBBBBBBBBBBBBBBBBBBBBBBBBBBBBvnnndcccc::nnnnnnnnn:::mmmmmmmm>>>kkkmmmmmmmmmmm:::mmmmmmnnnkmm:::kmkmcvic>==izicccBB",
"BBBBBBBBBBBBBBBBBBBBBBBBBBBBBBBBBBdnndnncccc::nnnnnnkmn:::mmmmmmmm>>>kkkmmmmmmmmmmm:::mmmmmmnnnmmk:::nnnmmvvc:==ppiccczB",
"BBBBBBBBBBBBBBBBBBBBBBBBBBBBBBBBBndndNdNcccn::nnnnnnmmm:::mmmmmmmm>>>mmmmmmmmmmmm>:mmmmmmmnNnnm:::kjknnnmmcvc::=cccccccB",
"BBBBBBBBBBBBBBBBBBBBBBBBBBBBBBBBBnNdNdNdcccn::nnnnnnmmm:::mmmmmmmm>>>mmmmmmmmmmmm>:mmmmmNnNnnnm:::kjknnnmkmvc:==cccccccc",
"BBBBBBBBBBBBBBBBBBBBBBBBBBBBBBBBdnndnnndccmm::nnnnnnmmm:::mmmmmmmm>>>mmmmmmmmmmmm>>mmmmmmmmmmmm:::kkknnnNcdNd:==xvxvxvxv",
"BBBBBBBBBBBBBBBBBBBBBBBBBBBBBBBBndndndnnccmm::nknnnnmmm::>mmmmmmmm>>>mmmmmmmmmmmm>>mmmmmmmmmmmm:::nnnnnncNNNn::=vxvxvxvx",
"BBBBBBBBBBBBBBBBBBBBBBBBBBBBBBBBdndnxvvvcmnn::kmnnnnmmm::>mmmmmmmm>>>mmmmmmmmmmmm>>mmmmmmmmmmmm:::nnnnnncNNdd;:=xvxvxvxv",
"BBBBBBBBBBBBBBBBBBBBBBBBBBBBBBBBnnnnvxvvcmmn::mmnnNnmmm:>>kkkmmmmm>>>mmmmmmmmmmmm>>mmmmmmmmmkkk:::nnnnnnccNdN;:=vxvxvxvx",
"BBBBBBBBBBBBBBBBBBBBBBBBBBBBBBBBxxvxxvxvkmmn::nnnnmmmmm>>>kkkmmmmm>>>NnNmmmmmmmmm>>mmmmmmmmmkkk:::nnnnnnNmmmN;;:xvxvxvxv",
"BBBBBBBBBBBBBBBBBBBBBBBBBBBBBBBBxvxvvxxvmmmk::nnmNmmmmm>>>kkkmmmmm>>>nNnmmmmmmmmm>>mmmmmmmmmkkk:::nnnnnnccmmc;;=vxvxvxvx",
"BBBBBBBBBBBBBBBBBBBBBBBBBBBBBBBBvxvxvxvvkmnn::nnmmmmmmmmmm>>>mmmnN>>>nnNmmmmmmmmm>>mmmmmmmmm:::mnnnnnnmmmmmmn;::xvxvxvxv",
"BBBBBBBBBBBBBBBBBBBBBBBBBBBBBBBBxvxvxvxvmnnn::nnmmmmmmmmmm>>>mmmNn>>>NNnnNmmmmmmm>>mmmmmmmmm:::mnnnnnnkmkmkmd:::vxvxvxvx",
"BBBBBBBBBBBBBBBBBBBBBBBBBBBBBBBBvxvxdNddNNNc::nnmmmmmmmmmm>>>mmmnn>>>nnnnNnNmmmmm>>mmmmmmmmm:::mnnnnnnnnnnncN>;=xvxvxvxv",
"BBBBBBBBBBBBBBBBBBBBBBBBBBBBBBBBxvxvNdNNNdcN::nnmmmmmmmmmm>>>mmmnnkkn>>>NnNnmmmmm>>mmmmmmmmm:::mnnnnnnnnnnncc>;;vxvxvxvx",
"BBBBBBBBBBBBBBBBBBBBBBBBBBBBBBBBvxvxdNdNcccN::nnmmmmmmmmmm>>>mmmnnjnk>>>nNnNnNnNm>>mmmmmmmmm:::mNnnnnnnnnnnnc>>;xvxvxvxv",
"BBBBBBBBBBBBBBBBBBBBBBBBBBBBBBBBxvxvNdNdmNcc::nnmmmmmmmmmm>>>mmmnnjjk>>>NNNnNnNnm>>mmmmmmmmm:::mnNnnnnnnnnnnc>=;vxvxvxvx",
"BBBBBBBBBBBBBBBBBBBBBBBBBBBBBBBBvxvxvxNNmmnn::jjkmmmmmmmmm>>>mmmMMMMN>>>NNNNnNnNm>>mmmmmmmmm>>:mnnnnnnnnnnnnd;;;xvxvxvxv",
"BBBBBBBBBBBBBBBBBBBBBBBBBBBBBBBBxvxvxvdnmmnk::jkkmmmmmmmmm>>>mmmMMMNN>>>NNNNNnNnm>>mmmmmmmmm:::mNnnnnnnnnnnnN;;;vxvxvxvx",
"BBBBBBBBBBBBBBBBBBBBBBBBBBBBBBBBvxvxvxvnmmkm::kkkmmmmmmmmm>>>mmmNMNNN>:>NNNNnNmmm>>mmmmmmmmm:::mmmnnnnnncnNdd;-;xvxvxvxv",
"BBBBBBBBBBBBBBBBBBBBBBBBBBBBBBBBxvxvxvvdmmmmnn:::mmmmmmmmm>>>mmmnNNNN>::NNNNNnmmm>>mmmmmmmmm:::mmmnnn>>kzdNNN;--vxvxvxvx",
"BBBBBBBBBBBBBBBBBBBBBBBBBBBBBBBBcccccccmmnnnnn:::mmmmmmmmm>>>mmmmnNnN>>>NNnNNnNmm>:mmmmmmmmm:::mmmmmn::kkknmm:::xvxvxvxv",
"BBBBBBBBBBBBBBBBBBBBBBBBBBBBBBBBcccccccmmnnnnn:::mmmmmmmmm>>>mmmNnnNn>>>NnNNnmmmm>>mmmmmmmmm:::mmmmmn::kjjnnm:=:vxvxvxvx",
"BBBBBBBBBBBBBBBBBBBBBBBBBBBBBBBBcccccccmmknn::nnmmmmmmmmmm:>>mmmNmnnN>>>NNNNmmmmm>:mmmmmmmmm:::mnnmmnnn:::nnd:=:xvxvxvxv",
"BBBBBBBBBBBBBBBBBBBBBBBBBBBBBBBBcccccccmmnnn::nnmmmmmmmmmm>>>mmmnNnmn>>>NNnnmmmmm>:mmmmmmmmm:::mnnnknnn:::nkn:::vxvxvxvx",
"BBBBBBBBBBBBBBBBBBBBBBBBBBBBBBBBccccccccmnnn::nnmmmmmmmmmm>>>mmmmmmmm>>>nnnnNnmmm>>mmmmmmmmm:::mNnnnnnn:>>NNc:::xvxvxvxv",
"BBBBBBBBBBBBBBBBBBBBBBBBBBBBBBBBccccccccmknn::nnmmmmmmmmmm>>>mmmmmmmm>>>jnknnNmmm>>mmmmmmmmm:::mnnnnnnn:>;ddc:::vxvxvxvx",
"BBBBBBBBBBBBBBBBBBBBBBBBBBBBBBBBzcccccccmmnn::nnmmmmmmmmmm>>>mmmmmmmm>>>kkknNmmmm>>mmmmmmmmm:::mnnnnnnn:>>NNn-:@xvxvxvxv",
"BBBBBBBBBBBBBBBBBBBBBBBBBBBBBBBBzccccccckmnn::nkmmmmmmmmmm>>>mmmmmmmmmmm:::nnNmmm>>kkkmmmmmm:::jkknnnnn>>;dNd-::vxvxvxvx",
"BBBBBBBBBBBBBBBBBBBBBBBBBBBBBBBBzccccccccmmm::mmmmmmmmmmmm>>>mmmmmmmmmmm>>>mmmmmm>>kkkmmmmmm>::jjknnnnn>::NdN;;;dNdNdNvx",
"BBBBBBBBBBBBBBBBBBBBBBBBBBBBBBBBzccccccccmmm::mkkmmmmmmmmm>>>mmmmmmmmmmm>>>mmmmmm>>kkkmmmmmm:::kjknknnn>::Ndd;;;NdNdNdvx",
"BBBBBBBBBBBBBBBBBBBBBBBBBBBBBBBBzxnccccccccN::mmnnmmmmNmmm>>>mmmmmmmmmmm>>>mmmmmmmm>>>mmmmmmmmm:::jjzcn>::dNd===dNnddNdv",
"BBBBBBBBBBBBBBBBBBBBBBBBBBBBBBBBzzcccccccNcc::mmnnmmmmnNmm:>>mmmmmmmmmmm>>>mmmmmmmm>>:mmmmmmmmm:::jzznn>::Ndd===NdnnNdnn",
"BBBBBBBBBBBBBBBBBBBBBBBBBBBBBBBBxxzncccccccc::nnnnnnnnnnmm::>mmmmmmmmmmm>>>mmmmmmmm>::mmNmmmnnn:::jjicc>;;NcN;;;ndnnxxxx",
"BBBBBBBBBBBBBBBBBBBBBBBBBBBBBBBBzxxzcccccccc::nnnnnnnnNkkk:::mmmmmmmmmmm>>>mmmmmmmm:::mmnNmmnnnnnn:::>>iivdcd;;;ndndxxxx",
"BBBBBBBBBBBBBBBBBBBBBBBBBBBBBBBBzxxncccccccc::nnnnnnnnmkkk:::mmmmmmmmmmm>>>mmmmmmmm:::mmnnnnnnnnnn:::=>vviccd===nnndxxxx",
"BBBBBBBBBBBBBBBBBBBBBBBBBBBBBBBBzxxzcccccccn::nnnnnnnkmkkk:::mmmmmmmmmmm>>>mmmmmmmm:::mmnnnnnnnnnn:::::iiiccc===dnnnxxxx",
"BBBBBBBBBBBBBBBBBBBBBBBBBBBBBBBBzzxxxxndnnnd;;ccNcmmknn:::nnnnmmmmmmmmmm:::kkkmmmmm:::kjjnnnnnnncmmmmkmvvvvic===cccczxxz",
"BBBBBBBBBBBBBBBBBBBBBBBBBBBBBBBBzzxxxxndndnn;;Ncmcmknnn:::nnnNmmmmmmmmmm:::kkkmmmmm:::jjjnnnnnnnNcmmmmccvvccc===ccnxxxxz",
"BBBBBBBBBBBBBBBBBBBBBBBBBBBBBBBBzzzxxxnndddn>>ccmmmmnnn:::nnNnNmmmmmmmmm:::kkkmmmmm:::jkjnnnnnnnNcvvkcccccccc===cczzxxzz",
"BBBBBBBBBBBBBBBBBBBBBBBBBBBBBBBBzzzxxxdnN;;;iiccmmmmkkk:::nnnnmmmmmmmmmmmmm:::mmmmmmnn:::nnnnnnncvvvmcccccccc===cczzxzzz",
"BBBBBBBBBBBBBBBBBBBBBBBBBBBBBBBBzzzzxxxxd;==ddccmmcnjjj:::nnnnnnnnnnmmmmnNn>::nnmmnnnn:::nnnnnnnNNdvNdNdccccc===nxxxxzzz",
"BBBBBBBBBBBBBBBBBBBBBBBBBBBBBBBBzzzzzxxxd;==idcccmmcjjj:::nnnnnknnnnmmmmnnN>:>nkkmnnnn:::nnnnnnndNNNdNdNccccc=::dxxxzzzz",
"BBBBBBBBBBBBBBBBBBBBBBBBBBBBBBBBzzzzzxxxN;;;cccccccc:::knnnnnkzj::jjkkmmnnn:::jjknnnnn:::jkjkmkndNNdNdNdcc>==iiixxxzzzzz",
"BBBBBBBBBBBBBBBBBBBBBBBBBBBBBBBBzzzzzzxxd;;;cccccccn:::nnnnnnkpz::jkkmmmnnn:::jkknnnnn:::jkknmmnNNdNdNdNcc::=iiixxxzzzzz",
"BBBBBBBBBBBBBBBBBBBBBBBBBBBBBBBBpxxzzzzxz===nnndcccc;;;cccmmnzzp::kkznnnnnn:>>zzknnnmm>>:jziccmcnnddNdNdnx@::pppxxzzzzzz",
"BBBBBBBBBBBBBBBBBBBBBBBBBBBBBBBBzxzzzz:*=tsdddnncccc;;;cNcmmn:::nn::>nnnnnnnnn:::nnnkmmmz:::ccccdnnnNXXXXXXX.xxxxzzzzzzz",
"BBBBBBBBBBBBBBBBBBBBBBBBBBBBBBBBpxpzzz**=pddnndncccc==;ckmmmn>:>nn::>nnnnnnncn:::nmkmmvvm:::ccccdnnndXXXXXXXXxxxzzzzzzxx",
"BBBBBBBBBBBBBBBBBBBBBBBBBBBBBBBBzxxxzz**=zdnndnxciii===cccmmc::;nn::>nnnnnnncc:>:nmmkmvvmppi:>>cnn.XXXXXXXXXXXXXzzzzzzzp",
"BBBBBBBBBBBBBBBBBBBBBBBBBBBBBBBBpxxxzz**=zzxxxxnczii===cccNcc>;;nm:::nnnnnmmkm;;:cmmcNcNczii:==cnn.XXXXXXXXXXXXXzzzzzzxz",
"BBBBBBBBBBBBBBBBBBBBBBBBBBBBBBBBzxzpzz**=zzxxxxxcipp===cccccc>;;km:>>cccccmmmm=::cmmccccciii:==cdn..XXXXXXXXXXXXzzzzzzxp",
"BBBBBBBBBBBBBBBBBBBBBBBBBBBBBBBBdxxxpx:*@zzzxxxxc::=cccccciii>>=cccmc:=;mmmmkm:::czzcccccccc===cdnXXXXXXXXXXXXXXzzzzpzpz",
"BBBBBBBBBBBBBBBBBBBBBBBBBBBBBBBBdpzpzx@::zzzzzxxc:::cccccciii>==ccccc>;;cccccc:::ccccccccccc===cnxXXXXXXXXXXXXXXzzzzxxxx",
"BBBBBBBBBBBBBBBBBBBBBBBBBBBBBBBBddzzzp***zzzzzzxd===nddncczdd;==NdNdd===NdNdnd;;:zccndnnndNd;;;dxnXXXXXXXXXXXXXXzzpzpzpz",
"BBBBBBBBBBBBBBBBBBBBBBBBBBBBBBBBdddzzz*:*zzzzzzzn===nnnzcz===dnndNdNn===dNdNnnndc::cndnddNdN;;;dxxXXXXXXXXXXXXXXpxxxxzxz",
"BBBBBBBBBBBBBBBBBBBBBBBBBBBBBBBBddddzp@@*xzzzzzzd:==dnnncc===dndNdNdn;==NdNddnnnc==znndnNdNd=;;dxxXXXXXXXXXXXXXXxxpxxzpz",
"BBBBBBBBBBBBBBBBBBBBBBBBBBBBBBBBddddsz::*xpzzzzzd:=:ndxxcc==;nnddNdnd===dNdNdndnc==cdnnndNdN=;;NxxXXXXXXXXXXXXXXpzzxxpzz",
"BBBBBBBBBBBBBBBBBBBBBBBBBBBBBBBBdddddd==*zxzpxxxd===zxxxzx==:xxnNdNdN;==NdNdndnnc==cccndcccc===dxxXXXXXXXXXXXXXXxpxxzzzz",
"BBBBBBBBBBBBBBBBBBBBBBBBBBBBBBBBdddddz@=*pxpzxpzn=@=zzzxzz==:xnzdNdNd;==dNdNndndc==cccznczzz==;dzzXXXXXXXXXXXXXXxzpzzzpd",
"BBBBBBBBBBBBBBBBBBBBBBBBBBBBBBBBsddddd=@*zpzpzpzz@::xzzzzx==$xxxnnNdN;;;NdNdxnxxc==ccxxxzzcz;;;dzzXXXXXXXXXXXXXXzxxxzddd",
"BBBBBBBBBBBBBBBBBBBBBBBBBBBBBBBBssdddd@=*xxxxxxxztts@==zzz==:xxxddnnd@;;dNdNnxxxz==zzxxxxzcc;;;dzzzzxXXXXXXXXzzzpxpzdddd",
"BBBBBBBBBBBBBBBBBBBBBBBBBBBBBBBBdtdddd=@@dzzxpxpzpt5***zzz$:*zzxnnNdd;;=xxxxxxxxx=@xxxxxzzzz==@xzzzzzXXXXXXXXpxpxxzsdddd",
"BBBBBBBBBBBBBBBBBBBBBBBBBBBBBBBBdtdtdd@==ssdxzxzz5pp***zzz***zzzxxddN;==xxxxxxxxx::zzzzzzzzz==:zzzzzzXXXXXXXXzxzzsdddddd",
"BBBBBBBBBBBBBBBBBBBBBBBBBBBBBBBBddtdddOO@zddszzzzzzx***zzzppp:$*xxrNd===zzzzzzzzz=:zzzzzzzzz**=zxxxppXXXXXXXXxzzsddddddd",
"BBBBBBBBBBBBBBBBBBBBBBBBBBBBBBBBtddddt==@dddssszzpzp***zzz5tp$:*xxddd===zzzzzzzzz=*zzzzzzzzz*:@zpzxzxXXXXXXXXxddsddddddd",
"BBBBBBBBBBBBBBBBBBBBBBBBBBBBBBBBddttss@==dddddddzxpz***zxzpzz***zzzzd;==zzzzzzzzz::zzzzxzzxp***zxxzxzXXXXXXXXddddddddddd",
"BBBBBBBBBBBBBBBBBBBBBBBBBBBBBBBBttddsp=@@zddddddssxx***pxpxxp***zzpzd;==zxzzzzzxz@@zzzpxzzxz***zpzpxpXXXXXX..dddddddddds",
"BBBBBBBBBBBBBBBBBBBBBBBBBBBBBBBBtdttss@=@zsdddddsdzs***xxzxxx***zpzzz===pxpzzzpxp*:zxzxxpxxx***zxxxpxXXXX....dddddddddss",
"BBBBBBBBBBBBBBBBBBBBBBBBBBBBBBBBtdttss55t@=@ddddddpz$$*xxpzpzxzzzxzpz:@=zxxxxpzxx**zxpzpzxpx**:ppzxzxX.......dddddddssss",
"BBBBBBBBBBBBBBBBBBBBBBBBBBBBBBBBpssttd11t=@=tsdddddd@==ddzzzzpzpzxzpp:@:zzpxxxxzp:@zpxxzpzpx***zpzzzd........ddddddsssdt",
"BBBBBBBBBBBBBBBBBBBBBBBBBBBBBBBBpstttd111==@ddsddddd=@@dddszzzzzpxxxz::$xpzxzpxpz::zzzxpxxzx:@*zxsssd........ddddddsssdt",
"BBBBBBBBBBBBBBBBBBBBBBBBBBBBBBBBttttttdtt=O@sssssddd@=@dddssddszzxzpz@@=zxxxpzxzz@@zpzpzxxpx::=dddsdd........ddsdtddsssd",
"BBBBBBBBBBBBBBBBBBBBBBBBBBBBBBBBtttddtttdO@=tssssssd=@=dddddddddsdsxz=:=zpzpxxxpz=:zxxxxzddp@=@dddddd........sssddddsstd",
"BBBBBBBBBBBBBBBBBBBBBBBBBBBBBBBBt0rrx0tdp@@@ddddtddd@=@dddddddddsdzpd@@=ddddpdxdd=@dddddssdd@:@dddddd........sssdtdidd1d",
"BBBBBBBBBBBBBBBBBBBBBBBBBBBBBBBB0000rrtsp5p5@@dtddtd=@=ddddddddddd4pt==Oddddddddd@=ddddddddddsddddddddd@=@ssssssddd11ddt",
"BBBBBBBBBBBBBBBBBBBBBBBBBBBBBBBB0r000rrdp155@Otddtss@==dssddddddddt5tO==ddddddddd=@ddddddddddddddddddds:@=ssssssddddvddt",
"BBBBBBBBBBBBBBBBBBBBBBBBBBBBBBBB00x00rrrp551==tttdtz@@@dsssssddddd4p1=O=ddddddddd@=ddddddddddddddddssss@=@ssssssdd1dd1td",
"BBBBBBBBBBBBBBBBBBBBBBBBBBBBBBBBr04s0r0rttst@@stddtdO==ttdddddddsd@=Odddddddddddd=@dddddddddddddtdddddt=@@55ptdddttddt1d",
"BBBBBBBBBBBBBBBBBBBBBBBBBBBBBBBB40t4r0r0ttrd=@dt1ddtOO@tddttttddss=@=dddddddddddi:=ddddddsdddtdtddttttd=@=4p5pdttdd1tddt",
"BBBBBBBBBBBBBBBBBBBBBBBBBBBBBBBBs40r0rs0t000@Ottttdt=@@ddtddddddss@==ttdssssssssz@@dtsssssdtdtdddtddddtO@@551tttttdttddt",
"BBBBBBBBBBBBBBBBBBBBBBBBBBBBBBBB4tr0r040tt00@OtddtttO=@ddttddtd1ss=@@dddssssss@*O4pddsssssdtddtdddtddtddzp@*=tdtdtttd1td",
"BBBBBBBBBBBBBBBBBBBBBBBBBBBBBBBB44tt000s0r00@@tttdtd=OOdt1ddtdddtdO==dttsdddss*@=p1ttdddsdtdddddttdddd1dtp=OOtdtttdddddr",
"BBBBBBBBBBBBBBBBBBBBBBBBBBBBBBBB4t410tr4r000@@ttttttOO=ttddtdttttd@@Odddtdttss@*O1ptddddtdtd1dddddttttiddp@O=tdtdtttt00r",
"BBBBBBBBBBBBBBBBBBBBBBBBBBBBBBBBt4t14t0r0r0011@@OtttO@Odtdttdttt55@:Otddddttss*@=ddidt1dddddddttd1tdtdtdttO==tttdtdr00ee",
"BBBBBBBBBBBBBBBBBBBBBBBBBBBBBBBB101t4t40r0tt11@@Ottp$$Otdd1dttdd55@@=ttttttsss@*Odd1dtdtttttd1ddddtttdtttd=OOtdtrr0r00ee",
"BBBBBBBBBBBBBBBBBBBBBBBBBBBBBBBB4404t4t100000r@@@r00@@@srssssttt$$ssspssttd=@@555ptdtttdtd1tdtdttddtttd11d=O=trrrreeeeee",
"BBBBBBBBBBBBBBBBBBBBBBBBBBBBBBBB44401040t400s4@@@r0t@@@0rr0rttsd$$sp4pssdttO@=554ptdtdtttddddtd1ttttdtdddd@OOtr1ereeeeee",
"BBBBBBBBBBBBBBBBBBBBBBBBBBBBBBBB14441tt100t14soo@t44@@@rr0r00rrr$$pptt4pdts@@@445tttdtd1ttdt1tddddtdttttrr=@@1dteeeeeee1",
"BBBBBBBBBBBBBBBBBBBBBBBBBBBBBBBB144444401t1to@,,44tt@@@00r0r0r0r$$s4tsspttt=@=ppppdttddidttdddtt1ittttttr1@@@111eeee1rrr",
"BBBBBBBBBBBBBBBBBBBBBBBBBBBBBBBB22144444t444o@,11tt4@@@rr0r0000t@@00ttttt00@@@rrdd1dtdttd1dtrrrrrrre1rreee@@@111rrrrr1rr",
"BBBBBBBBBBBBBBBBBBBBBBBBBBBBBBBB2221144444t4@o,1,4tt@@@00r0rr00t@@00tt00ttr@@@r00rdrttttrrt0reeeeeeed0eeee@@@111er1rrr1r",
"BBBBBBBBBBBBBBBBBBBBBBBBBBBBBBBB221414444444o@0444s4o@orr0r00@@@r00x0r00@@@141x00reerr1deeeeeeeeeeeeereerrrre@@@1rr1rrrr",
"BBBBBBBBBBBBBBBBBBBBBBBBBBBBBBBB224141414444oo004t44@oor0r0r0@@@0rr0r0r0@@@1110rrreeer1teeeeeeeeeeeeerr1r1er1@@@rrrr1r1r"
};
