/* XPM */
static char *back_5[] = {
/* columns rows colors chars-per-pixel */
"17 18 8 1",
"  c black",
". c #200529",
"X c #5F2B2C",
"o c #584A4C",
"O c #B66387",
"+ c #EA8056",
"@ c #EAB06B",
"# c None",
/* pixels */
"#####.......#####",
"####.+++++++.####",
"###.+@@@@@@@+.###",
"##.+@@@@@@@@@+.##",
"##.@@@@@@@@@@@.##",
"...@@@@@@@@@@@...",
".OO+@@@@@@@@@+OO.",
"#.O+@@@@@@@@@+O.#",
"##.++@@@@@@@++.##",
"##.++++@@@++++.##",
"###.+++++++++.###",
"##.XX+++++++.X.##",
"##.OX.X+++XX.O.##",
"##.OO.XXXXXX.O.##",
"###..ooooooo..###",
"####.oo..ooo.####",
"#####..##.XX.####",
"##########..#####"
};
