/* XPM */
static char *coin_small[] = {
/* columns rows colors chars-per-pixel */
"16 16 24 1",
"  c black",
". c #953129",
"X c #9D4B31",
"o c #A15835",
"O c #A6653A",
"+ c #B0643A",
"@ c #B46939",
"# c #BE6939",
"$ c #BE713E",
"% c #C36E39",
"& c #D27238",
"* c #E17738",
"= c #C27E43",
"- c #CA853D",
"; c #D98A3D",
": c #C98D42",
"> c #D89242",
", c #DF974C",
"< c #D89A47",
"1 c #DFA242",
"2 c #EEA641",
"3 c #FCD64B",
"4 c #E7F3F3",
"5 c None",
/* pixels */
"555555O,,,555555",
"5555*33443*O5555",
"55O*33333443O,55",
"55*3333***343O55",
"5*33*O,,OO*343,5",
"5*33,,,33,O*43O5",
"O*3*,,O34,,O343,",
",*3*,,O34,,O343,",
",*3*,,O34,,O3333",
",***,,O*3,,3***3",
"5..*3,,OO,O3**O5",
"5O.**3,,,,3***O5",
"55O..*333****O55",
"55,O....**..OO55",
"5555,O....OO5555",
"555555OOOO555555"
};
