/* XPM */
static char *coin_large[] = {
/* columns rows colors chars-per-pixel */
"32 32 23 1",
"  c black",
". c #953129",
"X c #A05334",
"o c #B05C35",
"O c #A6653A",
"+ c #B0643A",
"@ c #B3643A",
"# c #B46939",
"$ c #B96B39",
"% c #BE713E",
"& c #B97540",
"* c #C36E39",
"= c #C3763E",
"- c #CC7B3F",
"; c #E17738",
": c #C27E43",
"> c #CC8646",
", c #C98D42",
"< c #D18242",
"1 c #DF974C",
"2 c #FCD64B",
"3 c #E7F3F3",
"4 c None",
/* pixels */
"44444444444444444444444444444444",
"444444444444OOO11111444444444444",
"444444444OOO;;2222;;O11444444444",
"44444444O;;2222333222;;O44444444",
"444444OO;222222233333222O1444444",
"44444O;;22222222222333322O144444",
"4444O;;2222222222222233322O14444",
"4444;;2222222;;;;;;22233322O4444",
"444O;222222;;OOOOOO;;2233322O444",
"44O;;22222;O11111OOOO;223322;144",
"44O;22222;111111111OOO;223322144",
"441;2222;11111122111OOO;23322O44",
"4O;;2222;111112332111OO;22322;14",
"4O;;222;11111O;2331111OO;2332214",
"4O;;222;11111O;2331111OO;2332214",
"41;;222;11111O;2331111OO;2232214",
"41;;222;11111O;2331111OO;2222214",
"41;;;22;11111O;2331111OO;22222O4",
"41;;;22;11111O;2331111OO;22222O4",
"41;;.;;;21111O;2221111O2;;;;2;O4",
"44O..;;;211111O;;O1111O2;;;;;O44",
"441...;;;211111OO1111O2;;;;;;O44",
"441...;;;;2111111111O2;;;;;;;O44",
"444O...;;;;2211111122;;;;;;;O444",
"4444O...;;;;;222222;;;;;;;;O4444",
"44441O....;;;;;;;;;;;;;;;;;O4444",
"444441O.....;;;;;;;;;;;;;;O44444",
"4444441O........;;;;;...;O444444",
"44444444O..............O44444444",
"44444444411O........1OO444444444",
"44444444444411111OOO444444444444",
"44444444444444444444444444444444"
};
